<?xml version="1.0" standalone="no"?>
<!DOCTYPE svg PUBLIC "-//W3C//DTD SVG 20010904//EN"
 "http://www.w3.org/TR/2001/REC-SVG-20010904/DTD/svg10.dtd">
<svg version="1.0" xmlns="http://www.w3.org/2000/svg"
 width="512.000000pt" height="512.000000pt" viewBox="0 0 512.000000 512.000000"
 preserveAspectRatio="xMidYMid meet">
<metadata>
Created by potrace 1.11, written by Peter Selinger 2001-2013
</metadata>
<g transform="translate(0.000000,512.000000) scale(0.100000,-0.100000)"
fill="#000000" stroke="none">
<path d="M2065 4243 l0 -198 31 -3 31 -3 -3 -116 c-6 -213 -68 -363 -214 -513
-83 -86 -136 -173 -182 -300 l-23 -65 0 -1117 0 -1116 30 -43 c17 -24 46 -52
65 -64 34 -20 47 -20 762 -20 l726 0 44 30 c25 18 53 50 66 75 l22 45 -2 1105
-3 1105 -27 75 c-38 108 -92 195 -178 290 -86 94 -100 113 -140 192 -48 92
-70 192 -74 322 l-3 116 31 0 31 0 0 198 0 197 -495 3 -495 2 0 -197z"/>
</g>
</svg>
